{"title":"Austin Powers - Goldmember (2002) DVDRip XviD AC3 peaSoup","uid":8809849,"size":734451712,"categoryP":"video","categoryS":"movies","magnet":"?xt=urn:btih:3bd3889ded4052ff8f4983d8bc21ac277843e886&amp;dn=Austin+Powers+-+Goldmember+%282002%29+DVDRip+XviD+AC3+peaSoup&amp;tr=udp%3A%2F%2Ftracker.openbittorrent.com%3A80&amp;tr=udp%3A%2F%2Fopen.demonii.com%3A1337&amp;tr=udp%3A%2F%2Ftracker.coppersurfer.tk%3A6969&amp;tr=udp%3A%2F%2Fexodus.desync.com%3A6969","seeders":2,"leechers":1,"uploader":"peaSoup","files":-1,"time":1376432050,"description":"Storyline\n\nHe's found his mojo, baby, and now Austin Powers is back again in this shagadelic comedy-adventure! The &quot;sshhh!&quot; hits the fan when Dr. Evil and Mini-Me escape from prison. Joining forces with the superfreaky Goldmember, they kidnap Austin's father, master spy Nigel Powers, in a dastardly time-travel scheme to take over the world. Before you can say &quot;Shake Your Booty,&quot; Austin cruises to 1975 and teams up with sexy Foxxy Cleopatra to stop Dr. Evil and Goldmember from their mischievous mayhem.      &lt;a href=&quot; http://imageshack.us/a/img853/2369/rmeb.jpg&quot; rel=&quot;nofollow&quot; target=&quot;_NEW&quot;&gt; http://imageshack.us/a/img853/2369/rmeb.jpg&lt;/a&gt;                                         &lt;a href=&quot; http://imageshack.us/a/img547/2465/kfa6.jpg&quot; rel=&quot;nofollow&quot; target=&quot;_NEW&quot;&gt; http://imageshack.us/a/img547/2465/kfa6.jpg&lt;/a&gt;                                         &lt;a href=&quot; http://imageshack.us/a/img11/1180/nj0x.jpg&quot; rel=&quot;nofollow&quot; target=&quot;_NEW&quot;&gt; http://imageshack.us/a/img11/1180/nj0x.jpg&lt;/a&gt;                                          &lt;a href=&quot; http://imageshack.us/a/img19/9193/0q21.jpg&quot; rel=&quot;nofollow&quot; target=&quot;_NEW&quot;&gt; http://imageshack.us/a/img19/9193/0q21.jpg&lt;/a&gt;                                          &lt;a href=&quot; http://imageshack.us/a/img211/9819/3s7j.jpg&quot; rel=&quot;nofollow&quot; target=&quot;_NEW&quot;&gt; http://imageshack.us/a/img211/9819/3s7j.jpg&lt;/a&gt;                                          Format                                   : AVI\nFormat/Info                              : Audio Video Interleave\nFile size                                : 700 MiB\nDuration                                 : 1h 30mn\nOverall bit rate                         : 1 080 Kbps\nWriting application                      : VirtualDubMod 1.5.4.1 (build 2178/release)\nWriting library                          : VirtualDubMod build 2178/release\n\nVideo\nID                                       : 0\nFormat                                   : MPEG-4 Visual\nFormat profile                           : Advanced Simple@L5\nFormat settings, BVOP                    : 1\nFormat settings, QPel                    : No\nFormat settings, GMC                     : No warppoints\nFormat settings, Matrix                  : Custom\nCodec ID                                 : XVID\nCodec ID/Hint                            : XviD\nDuration                                 : 1h 30mn\nBit rate                                 : 625 Kbps\nWidth                                    : 544 pixels\nHeight                                   : 240 pixels\nDisplay aspect ratio                     : 2.25:1\nFrame rate                               : 25.000 fps\nColor space                              : YUV\nChroma subsampling                       : 4:2:0\nBit depth                                : 8 bits\nScan type                                : Progressive\nCompression mode                         : Lossy\nBits/(Pixel*Frame)                       : 0.192\nStream size                              : 405 MiB (58%)\nWriting library                          : XviD 1.2.1 (UTC 2008-12-04)\n\nAudio\nID                                       : 1\nFormat                                   : AC-3\nFormat/Info                              : Audio Coding 3\nMode extension                           : CM (complete main)\nFormat settings, Endianness              : Big\nCodec ID                                 : 2000\nDuration                                 : 1h 30mn\nBit rate mode                            : Constant\nBit rate                                 : 448 Kbps\nChannel(s)                               : 6 channels\nChannel positions                        : Front: L C R, Side: L R, LFE\nSampling rate                            : 48.0 KHz\nBit depth                                : 16 bits\nCompression mode                         : Lossy\nStream size                              : 290 MiB (41%)\nAlignment                                : Split accross interleaves\nInterleave, duration                     : 96 ms (2.40 video frames)\nInterleave, preload duration             : 96 ms\nLanguage                                 : English\n\n","torrent":{"xt":"urn:btih:3bd3889ded4052ff8f4983d8bc21ac277843e886","amp;dn":"Austin+Powers+-+Goldmember+%282002%29+DVDRip+XviD+AC3+peaSoup","amp;tr":["udp%3A%2F%2Ftracker.openbittorrent.com%3A80","udp%3A%2F%2Fopen.demonii.com%3A1337","udp%3A%2F%2Ftracker.coppersurfer.tk%3A6969","udp%3A%2F%2Fexodus.desync.com%3A6969"],"infoHash":"3bd3889ded4052ff8f4983d8bc21ac277843e886","infoHashBuffer":{"type":"Buffer","data":[59,211,136,157,237,64,82,255,143,73,131,216,188,33,172,39,120,67,232,134]},"announce":[],"urlList":[]}}